<mxfile host="drawio-plugin" modified="2023-03-30T03:34:23.976Z" agent="5.0 (Windows NT 6.2; Win64; x64) AppleWebKit/537.36 (KHTML, like Gecko) Chrome/104.0.5112.102 Safari/537.36" etag="7l7FGFdPgJXLnhBJNMwz" version="20.5.3" type="embed"><diagram id="aZChv2ZXlpnFjJAb-l7c" name="Page-1"><mxGraphModel dx="1086" dy="742" grid="1" gridSize="10" guides="1" tooltips="1" connect="1" arrows="1" fold="1" page="1" pageScale="1" pageWidth="850" pageHeight="1100" math="0" shadow="0"><root><mxCell id="0"/><mxCell id="1" parent="0"/><mxCell id="4" value="" style="edgeStyle=orthogonalEdgeStyle;rounded=0;orthogonalLoop=1;jettySize=auto;html=1;" parent="1" source="2" target="22" edge="1"><mxGeometry relative="1" as="geometry"/></mxCell><mxCell id="2" value="查找ControllerVersion" style="rounded=1;whiteSpace=wrap;html=1;" parent="1" vertex="1"><mxGeometry x="75" y="70" width="120" height="60" as="geometry"/></mxCell><mxCell id="6" value="" style="edgeStyle=orthogonalEdgeStyle;rounded=0;orthogonalLoop=1;jettySize=auto;html=1;" parent="1" source="3" target="7" edge="1"><mxGeometry relative="1" as="geometry"><mxPoint x="135" y="480" as="targetPoint"/></mxGeometry></mxCell><mxCell id="3" value="找到最新版本" style="whiteSpace=wrap;html=1;rounded=1;" parent="1" vertex="1"><mxGeometry x="75" y="340" width="120" height="60" as="geometry"/></mxCell><mxCell id="12" value="N" style="edgeStyle=orthogonalEdgeStyle;rounded=0;orthogonalLoop=1;jettySize=auto;html=1;entryX=0;entryY=0.5;entryDx=0;entryDy=0;" parent="1" source="7" target="13" edge="1"><mxGeometry relative="1" as="geometry"><mxPoint x="385" y="520" as="targetPoint"/></mxGeometry></mxCell><mxCell id="7" value="与gpuapp中的Generation比对，是否是最新的？" style="rhombus;whiteSpace=wrap;html=1;" parent="1" vertex="1"><mxGeometry x="20" y="480" width="230" height="80" as="geometry"/></mxCell><mxCell id="15" value="Y" style="edgeStyle=orthogonalEdgeStyle;rounded=0;orthogonalLoop=1;jettySize=auto;html=1;entryX=0.5;entryY=0;entryDx=0;entryDy=0;" parent="1" source="13" target="14" edge="1"><mxGeometry relative="1" as="geometry"><mxPoint x="450" y="610" as="targetPoint"/></mxGeometry></mxCell><mxCell id="17" value="N" style="edgeStyle=orthogonalEdgeStyle;rounded=0;orthogonalLoop=1;jettySize=auto;html=1;" parent="1" source="13" target="16" edge="1"><mxGeometry relative="1" as="geometry"/></mxCell><mxCell id="13" value="镜像内容有变化？" style="rhombus;whiteSpace=wrap;html=1;" parent="1" vertex="1"><mxGeometry x="335" y="480" width="230" height="80" as="geometry"/></mxCell><mxCell id="14" value="杀掉目前所有的pod" style="rounded=1;whiteSpace=wrap;html=1;" parent="1" vertex="1"><mxGeometry x="390" y="620" width="120" height="60" as="geometry"/></mxCell><mxCell id="19" value="" style="edgeStyle=orthogonalEdgeStyle;rounded=0;orthogonalLoop=1;jettySize=auto;html=1;entryX=1;entryY=0.5;entryDx=0;entryDy=0;" parent="1" source="16" target="26" edge="1"><mxGeometry relative="1" as="geometry"><Array as="points"><mxPoint x="760" y="875"/></Array></mxGeometry></mxCell><mxCell id="16" value="修改Pod数量" style="rounded=1;whiteSpace=wrap;html=1;" parent="1" vertex="1"><mxGeometry x="700" y="490" width="120" height="60" as="geometry"/></mxCell><mxCell id="18" value="修改gpuapp status" style="rounded=1;whiteSpace=wrap;html=1;" parent="1" vertex="1"><mxGeometry x="390" y="975" width="120" height="60" as="geometry"/></mxCell><mxCell id="20" value="" style="edgeStyle=orthogonalEdgeStyle;rounded=0;orthogonalLoop=1;jettySize=auto;html=1;exitX=0.5;exitY=1;exitDx=0;exitDy=0;entryX=0.5;entryY=0;entryDx=0;entryDy=0;" parent="1" source="14" target="28" edge="1"><mxGeometry relative="1" as="geometry"><mxPoint x="770" y="570" as="sourcePoint"/><mxPoint x="700" y="800" as="targetPoint"/></mxGeometry></mxCell><mxCell id="22" value="是否存在ControllerVersion" style="rhombus;whiteSpace=wrap;html=1;" parent="1" vertex="1"><mxGeometry x="20" y="195" width="230" height="80" as="geometry"/></mxCell><mxCell id="23" value="Y" style="edgeStyle=orthogonalEdgeStyle;rounded=0;orthogonalLoop=1;jettySize=auto;html=1;exitX=0.5;exitY=1;exitDx=0;exitDy=0;entryX=0.5;entryY=0;entryDx=0;entryDy=0;" parent="1" source="22" target="3" edge="1"><mxGeometry relative="1" as="geometry"><mxPoint x="320" y="405" as="targetPoint"/><mxPoint x="145" y="475" as="sourcePoint"/></mxGeometry></mxCell><mxCell id="29" value="" style="edgeStyle=orthogonalEdgeStyle;rounded=0;orthogonalLoop=1;jettySize=auto;html=1;entryX=0.5;entryY=0;entryDx=0;entryDy=0;exitX=0.5;exitY=1;exitDx=0;exitDy=0;" parent="1" source="26" target="18" edge="1"><mxGeometry relative="1" as="geometry"><Array as="points"><mxPoint x="450" y="935"/><mxPoint x="450" y="935"/></Array></mxGeometry></mxCell><mxCell id="26" value="创建ControllerVersion" style="rounded=1;whiteSpace=wrap;html=1;" parent="1" vertex="1"><mxGeometry x="390" y="845" width="120" height="60" as="geometry"/></mxCell><mxCell id="27" value="N" style="edgeStyle=orthogonalEdgeStyle;rounded=0;orthogonalLoop=1;jettySize=auto;html=1;exitX=1;exitY=0.5;exitDx=0;exitDy=0;entryX=1;entryY=0.5;entryDx=0;entryDy=0;" parent="1" source="22" target="28" edge="1"><mxGeometry relative="1" as="geometry"><mxPoint x="145" y="460" as="targetPoint"/><mxPoint x="145" y="330" as="sourcePoint"/><Array as="points"><mxPoint x="630" y="235"/><mxPoint x="630" y="760"/></Array></mxGeometry></mxCell><mxCell id="28" value="根据配置拉起镜像" style="whiteSpace=wrap;html=1;rounded=1;" parent="1" vertex="1"><mxGeometry x="390" y="731" width="120" height="60" as="geometry"/></mxCell><mxCell id="31" value="Y" style="edgeStyle=orthogonalEdgeStyle;rounded=0;orthogonalLoop=1;jettySize=auto;html=1;exitX=0.5;exitY=1;exitDx=0;exitDy=0;entryX=0.5;entryY=0;entryDx=0;entryDy=0;" parent="1" source="7" target="18" edge="1"><mxGeometry relative="1" as="geometry"><Array as="points"><mxPoint x="135" y="930"/><mxPoint x="450" y="930"/></Array><mxPoint x="770" y="605" as="sourcePoint"/><mxPoint x="460" y="865" as="targetPoint"/></mxGeometry></mxCell><mxCell id="32" value="" style="edgeStyle=orthogonalEdgeStyle;rounded=0;orthogonalLoop=1;jettySize=auto;html=1;exitX=0.5;exitY=1;exitDx=0;exitDy=0;entryX=0.5;entryY=0;entryDx=0;entryDy=0;" parent="1" source="28" target="26" edge="1"><mxGeometry relative="1" as="geometry"><Array as="points"/><mxPoint x="780" y="580" as="sourcePoint"/><mxPoint x="350" y="875" as="targetPoint"/></mxGeometry></mxCell></root></mxGraphModel></diagram></mxfile>